<svg width="26" height="24" viewBox="0 0 26 24" fill="none" xmlns="http://www.w3.org/2000/svg">
    <path fill-rule="evenodd" clip-rule="evenodd" d="M12.5312 22.7312C12.2311 23.0312 11.8242 23.1997 11.4 23.1997C10.9757 23.1997 10.5688 23.0312 10.2688 22.7312L0.668776 13.1312C0.368822 12.8312 0.200317 12.4243 0.200317 12C0.200317 11.5757 0.368822 11.1689 0.668776 10.8688L10.2688 1.26881C10.5705 0.977358 10.9747 0.816087 11.3942 0.819732C11.8137 0.823378 12.215 0.991648 12.5117 1.2883C12.8083 1.58495 12.9766 1.98625 12.9803 2.40577C12.9839 2.82528 12.8226 3.22945 12.5312 3.53121L5.66238 10.4H24.2C24.6243 10.4 25.0313 10.5686 25.3313 10.8686C25.6314 11.1687 25.8 11.5757 25.8 12C25.8 12.4244 25.6314 12.8313 25.3313 13.1314C25.0313 13.4314 24.6243 13.6 24.2 13.6H5.66238L12.5312 20.4688C12.8311 20.7689 12.9996 21.1757 12.9996 21.6C12.9996 22.0243 12.8311 22.4312 12.5312 22.7312Z" fill="#131521"/>
</svg>
