<svg width="1em" height="1em" viewBox="0 0 39 39" fill="currentColor" xmlns="http://www.w3.org/2000/svg">
	<g clip-path="url(#clip0_1967_1563)">
		<path
			d="M31.665 29.2219H7.09498C3.74698 29.2219 2.09998 26.6569 2.09998 24.2269C2.09998 20.2309 6.05998 18.9619 8.03998 18.8269C8.79598 13.6429 13.575 12.8869 15.87 13.1569C18.246 9.4849 21.72 8.6569 23.16 8.7019C29.316 8.8099 30.72 13.9669 31.395 16.1269C35.931 16.7749 37.155 20.8069 37.065 22.6069C37.065 26.6569 33.285 29.2219 31.665 29.2219Z"
			stroke="currentColor" fill="transparent" stroke-width="2.8" />
		<path
			d="M25.5853 26.6623C24.9353 26.6578 24.3319 26.5412 23.7751 26.3124C23.2184 26.0753 22.7456 25.747 22.3568 25.3277L23.2752 24.459C23.6227 24.828 23.971 25.0887 24.3199 25.2411C24.669 25.3852 25.0851 25.4588 25.5685 25.4621C25.9518 25.4647 26.2855 25.4087 26.5696 25.294C26.8621 25.171 27.0883 25.0017 27.2481 24.7861C27.4079 24.5705 27.4888 24.3169 27.4908 24.0252C27.4926 23.7669 27.4275 23.5373 27.2955 23.3364C27.1635 23.1355 26.9813 22.98 26.7487 22.8701C26.5161 22.7519 26.2457 22.6917 25.9374 22.6896L24.8624 22.6822L24.8703 21.5323L25.8327 21.5388C26.2577 21.5417 26.596 21.4274 26.8476 21.1958C27.1075 20.9642 27.2388 20.6484 27.2416 20.2484C27.2433 19.9901 27.1699 19.7563 27.0214 19.5469C26.8812 19.3293 26.6865 19.1613 26.4373 19.0429C26.1881 18.9162 25.9052 18.8518 25.5886 18.8496C25.1469 18.8466 24.7589 18.9231 24.4245 19.0792C24.0985 19.227 23.7592 19.4913 23.4065 19.8722L22.4875 19.0035C22.8905 18.5562 23.3637 18.2177 23.9069 17.9881C24.4586 17.7502 25.0344 17.6333 25.6344 17.6374C26.2177 17.6414 26.7336 17.7491 27.1822 17.9605C27.6308 18.1719 27.9788 18.4659 28.2262 18.8426C28.482 19.211 28.6083 19.6327 28.6051 20.1077C28.6019 20.5744 28.4449 20.99 28.134 21.3545C27.8316 21.7108 27.4341 21.9581 26.9415 22.0964C27.5239 22.2254 27.9889 22.4744 28.3364 22.8435C28.6923 23.2042 28.8685 23.6304 28.8652 24.1221C28.8618 24.6137 28.7171 25.0544 28.4311 25.4442C28.1452 25.8256 27.7556 26.1271 27.2624 26.3487C26.7776 26.5621 26.2186 26.6666 25.5853 26.6623Z" />
		<path
			d="M23.7751 26.3124L23.6281 26.6574L23.6326 26.6593L23.7751 26.3124ZM22.3568 25.3277L22.0991 25.0553L21.8294 25.3104L22.0818 25.5827L22.3568 25.3277ZM23.2752 24.459L23.5483 24.2019L23.2906 23.9282L23.0176 24.1865L23.2752 24.459ZM24.3199 25.2411L24.1698 25.5848L24.1769 25.5877L24.3199 25.2411ZM26.5696 25.294L26.7101 25.6417L26.715 25.6396L26.5696 25.294ZM27.2481 24.7861L27.5494 25.0094L27.5494 25.0094L27.2481 24.7861ZM27.2955 23.3364L27.6089 23.1305L27.2955 23.3364ZM26.7487 22.8701L26.5786 23.2045L26.5884 23.2092L26.7487 22.8701ZM24.8624 22.6822L24.4874 22.6797L24.4849 23.0547L24.8598 23.0572L24.8624 22.6822ZM24.8703 21.5323L24.8728 21.1573L24.4978 21.1547L24.4953 21.5297L24.8703 21.5323ZM26.8476 21.1958L26.5981 20.9157L26.5936 20.9199L26.8476 21.1958ZM27.0214 19.5469L26.7061 19.75L26.7107 19.7571L26.7155 19.7639L27.0214 19.5469ZM26.4373 19.0429L26.2672 19.3773L26.2764 19.3816L26.4373 19.0429ZM24.4245 19.0792L24.5793 19.4207L24.5831 19.419L24.4245 19.0792ZM23.4065 19.8722L23.1489 20.1448L23.4243 20.4051L23.6817 20.127L23.4065 19.8722ZM22.4875 19.0035L22.2089 18.7524L21.9637 19.0244L22.2299 19.276L22.4875 19.0035ZM23.9069 17.9881L24.0529 18.3335L24.0554 18.3325L23.9069 17.9881ZM27.1822 17.9605L27.342 17.6212L27.342 17.6212L27.1822 17.9605ZM28.2262 18.8426L27.9127 19.0486L27.9182 19.0565L28.2262 18.8426ZM28.134 21.3545L27.8487 21.1112L27.8482 21.1119L28.134 21.3545ZM26.9415 22.0964L26.8401 21.7354L26.8604 22.4626L26.9415 22.0964ZM28.3364 22.8435L28.0633 23.1006L28.0694 23.1068L28.3364 22.8435ZM28.4311 25.4442L28.7312 25.6691L28.7335 25.666L28.4311 25.4442ZM27.2624 26.3487L27.4135 26.6919L27.4162 26.6908L27.2624 26.3487ZM25.5878 26.2873C24.982 26.2831 24.4266 26.1747 23.9176 25.9656L23.6326 26.6593C24.2372 26.9077 24.8886 27.0325 25.5827 27.0373L25.5878 26.2873ZM23.9221 25.9674C23.411 25.7497 22.9827 25.4512 22.6318 25.0727L22.0818 25.5827C22.5086 26.0429 23.0258 26.4008 23.6282 26.6574L23.9221 25.9674ZM22.6145 25.6001L23.5329 24.7314L23.0176 24.1865L22.0991 25.0553L22.6145 25.6001ZM23.0022 24.716C23.3735 25.1104 23.7619 25.4066 24.1699 25.5848L24.47 24.8974C24.1801 24.7708 23.8719 24.5456 23.5483 24.2019L23.0022 24.716ZM24.1769 25.5877C24.581 25.7546 25.0473 25.8336 25.5659 25.8371L25.571 25.0871C25.123 25.0841 24.7569 25.0158 24.463 24.8945L24.1769 25.5877ZM25.5659 25.8371C25.9863 25.84 26.3707 25.7787 26.71 25.6417L26.4292 24.9462C26.2004 25.0387 25.9172 25.0895 25.571 25.0871L25.5659 25.8371ZM26.715 25.6396C27.0581 25.4954 27.3427 25.2881 27.5494 25.0094L26.9469 24.5628C26.8339 24.7152 26.6662 24.8465 26.4243 24.9483L26.715 25.6396ZM27.5494 25.0094C27.7607 24.7243 27.8633 24.3917 27.8658 24.0278L27.1158 24.0227C27.1143 24.2421 27.0551 24.4167 26.9469 24.5628L27.5494 25.0094ZM27.8658 24.0278C27.868 23.7012 27.7846 23.3979 27.6089 23.1305L26.9821 23.5422C27.0703 23.6766 27.1171 23.8326 27.1158 24.0227L27.8658 24.0278ZM27.6089 23.1305C27.4364 22.8679 27.1993 22.6683 26.9089 22.5311L26.5884 23.2092C26.7632 23.2918 26.8906 23.403 26.9821 23.5422L27.6089 23.1305ZM26.9187 22.5359C26.6256 22.3868 26.296 22.317 25.9399 22.3146L25.9348 23.0646C26.1955 23.0664 26.4067 23.1169 26.5787 23.2044L26.9187 22.5359ZM25.9399 22.3146L24.865 22.3073L24.8598 23.0572L25.9348 23.0646L25.9399 22.3146ZM25.2374 22.6848L25.2452 21.5348L24.4953 21.5297L24.4874 22.6797L25.2374 22.6848ZM24.8677 21.9073L25.8302 21.9138L25.8353 21.1638L24.8728 21.1573L24.8677 21.9073ZM25.8302 21.9138C26.326 21.9172 26.7642 21.7823 27.1016 21.4716L26.5936 20.9199C26.4278 21.0725 26.1895 21.1663 25.8353 21.1638L25.8302 21.9138ZM27.0971 21.4758C27.4483 21.1628 27.6132 20.7396 27.6166 20.251L26.8666 20.2459C26.8645 20.5572 26.7667 20.7656 26.5981 20.9158L27.0971 21.4758ZM27.6166 20.251C27.6189 19.9145 27.5216 19.6038 27.3272 19.3299L26.7155 19.7639C26.8183 19.9087 26.8678 20.0656 26.8666 20.2459L27.6166 20.251ZM27.3366 19.3438C27.1561 19.0636 26.9061 18.8505 26.5982 18.7042L26.2764 19.3816C26.4668 19.4721 26.6062 19.595 26.7061 19.75L27.3366 19.3438ZM26.6073 18.7087C26.2997 18.5522 25.9582 18.4771 25.5911 18.4746L25.586 19.2246C25.8523 19.2264 26.0766 19.2802 26.2673 19.3772L26.6073 18.7087ZM25.5911 18.4746C25.1046 18.4713 24.6597 18.5556 24.2659 18.7394L24.5831 19.419C24.8581 19.2907 25.1892 19.2219 25.586 19.2246L25.5911 18.4746ZM24.2697 18.7376C23.8825 18.9131 23.5039 19.2151 23.1313 19.6175L23.6817 20.127C24.0144 19.7676 24.3144 19.5408 24.5793 19.4207L24.2697 18.7376ZM23.6642 19.5997L22.7451 18.7309L22.2299 19.276L23.1489 20.1448L23.6642 19.5997ZM22.766 19.2545C23.1331 18.8471 23.5613 18.5413 24.0529 18.3335L23.7609 17.6427C23.166 17.8942 22.6479 18.2652 22.2089 18.7524L22.766 19.2545ZM24.0554 18.3325C24.5594 18.1151 25.0838 18.0086 25.6318 18.0124L25.6369 17.2624C24.9849 17.258 24.3577 17.3853 23.7584 17.6438L24.0554 18.3325ZM25.6318 18.0124C26.1702 18.0161 26.6309 18.1152 27.0223 18.2997L27.342 17.6212C26.8363 17.3829 26.2651 17.2667 25.6369 17.2624L25.6318 18.0124ZM27.0223 18.2997C27.4149 18.4847 27.707 18.7352 27.9128 19.0485L28.5396 18.6367C28.2505 18.1966 27.8466 17.8591 27.342 17.6212L27.0223 18.2997ZM27.9182 19.0565C28.1272 19.3575 28.2328 19.7027 28.2301 20.1052L28.9801 20.1103C28.9838 19.5628 28.8368 19.0645 28.5342 18.6287L27.9182 19.0565ZM28.2301 20.1052C28.2275 20.481 28.1039 20.8119 27.8487 21.1112L28.4194 21.5978C28.7859 21.168 28.9762 20.6678 28.9801 20.1103L28.2301 20.1052ZM27.8482 21.1119C27.5986 21.4058 27.2679 21.6153 26.8401 21.7354L27.0428 22.4575C27.6002 22.301 28.0646 22.0158 28.4199 21.5972L27.8482 21.1119ZM26.8604 22.4626C27.3827 22.5782 27.7761 22.7954 28.0634 23.1005L28.6094 22.5864C28.2017 22.1534 27.6652 21.8726 27.0225 21.7303L26.8604 22.4626ZM28.0694 23.1068C28.3579 23.3992 28.4928 23.7307 28.4902 24.1195L29.2402 24.1247C29.2442 23.5302 29.0267 23.0093 28.6034 22.5801L28.0694 23.1068ZM28.4902 24.1195C28.4874 24.5337 28.3673 24.8974 28.1288 25.2223L28.7335 25.666C29.067 25.2115 29.2363 24.6938 29.2402 24.1247L28.4902 24.1195ZM28.1311 25.2192C27.8881 25.5433 27.5519 25.8075 27.1087 26.0067L27.4162 26.6908C27.9594 26.4466 28.4023 26.1078 28.7312 25.6691L28.1311 25.2192ZM27.1114 26.0055C26.6835 26.1938 26.1784 26.2913 25.5878 26.2873L25.5827 27.0373C26.2587 27.0419 26.8718 26.9304 27.4135 26.6919L27.1114 26.0055Z" />
		<circle cx="26.36" cy="14.8218" r="1.5" />
		<circle cx="21.5" cy="14.8218" r="1.5" />
	</g>
	<defs>
		<clipPath id="clip0_1967_1563">
			<rect width="39" height="39" />
		</clipPath>
	</defs>
</svg>