<svg width="34" height="43" viewBox="0 0 34 43" fill="none" xmlns="http://www.w3.org/2000/svg">
    <path d="M1.22814 17.9038C1.22814 18.8532 1.80577 19.6343 2.70268 20.2588C3.59956 20.8833 4.85905 21.3846 6.33625 21.7774C9.29482 22.5641 13.211 22.9369 17.0796 22.9369C20.9483 22.9369 24.8645 22.5641 27.823 21.7774C29.3002 21.3846 30.5597 20.8833 31.4566 20.2588C32.3535 19.6343 32.9312 18.8532 32.9312 17.9038C32.9312 16.9545 32.3535 16.1734 31.4566 15.5489C30.5597 14.9244 29.3002 14.4231 27.823 14.0303C24.8645 13.2436 20.9483 12.8708 17.0796 12.8708C13.211 12.8708 9.29482 13.2436 6.33625 14.0303C4.85905 14.4231 3.59957 14.9244 2.70268 15.5489C1.80577 16.1734 1.22814 16.9545 1.22814 17.9038ZM3.18044 17.9038C3.18044 17.8297 3.21519 17.7161 3.34343 17.5629C3.47082 17.4107 3.67387 17.2402 3.96414 17.06C4.54408 16.7 5.42752 16.3291 6.61301 15.9951C8.98036 15.3283 12.5016 14.8231 17.0796 14.8231C21.6577 14.8231 25.1789 15.3283 27.5463 15.9951C28.7318 16.3291 29.6152 16.7 30.1952 17.06C30.4854 17.2402 30.6885 17.4107 30.8159 17.5629C30.9441 17.7161 30.9789 17.8297 30.9789 17.9038C30.9789 17.978 30.9441 18.0916 30.8159 18.2448C30.6885 18.397 30.4854 18.5675 30.1952 18.7477C29.6152 19.1077 28.7318 19.4786 27.5463 19.8126C25.1789 20.4794 21.6577 20.9846 17.0796 20.9846C12.5016 20.9846 8.98036 20.4794 6.61301 19.8126C5.42752 19.4786 4.54408 19.1077 3.96414 18.7477C3.67387 18.5675 3.47082 18.397 3.34343 18.2448C3.21519 18.0916 3.18044 17.978 3.18044 17.9038Z" fill="black" stroke="black" stroke-width="0.6"/>
    <path d="M6.02465 38.0827H6.14536C6.87564 39.3141 8.30235 40.2554 10.171 40.8897C12.0525 41.5284 14.4195 41.8692 17.0797 41.8692C19.8065 41.8692 22.1752 41.5287 24.0422 40.8718C25.8539 40.2343 27.2218 39.2881 27.9627 38.0372C27.978 38.0295 27.993 38.0209 28.0075 38.0112C28.0792 37.9634 28.1233 37.9018 28.1495 37.8493C28.1752 37.798 28.1865 37.7503 28.1919 37.7179C28.1932 37.71 28.1943 37.7026 28.1951 37.6957L32.9228 18.1095L32.9312 18.0748V18.0391C32.9312 17.8065 32.8931 17.5742 32.7673 17.373C32.6376 17.1656 32.4379 17.0273 32.1851 16.9431L32.1389 16.9277H32.0903C31.8577 16.9277 31.6254 16.9658 31.4242 17.0916C31.2168 17.2212 31.0785 17.4209 30.9943 17.6737L30.9903 17.6856L30.9874 17.6978L26.2655 37.1249C25.8956 37.7106 25.0262 38.4037 23.5344 38.9551C22.0195 39.5149 19.8923 39.9169 17.0797 39.9169C14.3326 39.9169 12.2386 39.5482 10.7237 39.0048C9.23407 38.4705 8.32815 37.7763 7.89296 37.1212L3.17198 17.6978L3.16902 17.6856L3.16507 17.6737C3.08706 17.4397 2.95874 17.2072 2.75619 17.0553C2.53793 16.8916 2.26526 16.8461 1.97421 16.9431C1.74018 17.0211 1.50768 17.1494 1.35577 17.352C1.19458 17.5669 1.14796 17.8346 1.2392 18.1206L5.96949 37.8527L6.02465 38.0827Z" fill="black" stroke="black" stroke-width="0.6"/>
    <path d="M30.9789 17.9038C30.9789 18.1748 31.0705 18.424 31.2527 18.6062C31.4348 18.7883 31.684 18.88 31.955 18.88C32.226 18.88 32.4752 18.7883 32.6574 18.6062C32.8395 18.424 32.9312 18.1748 32.9312 17.9038C32.9312 13.4907 31.0021 9.19454 28.0682 6.00334C25.1354 2.81325 21.1722 0.7 17.0796 0.7C12.9871 0.7 9.02389 2.81325 6.09107 6.00334C3.15722 9.19454 1.22814 13.4907 1.22814 17.9038C1.22814 18.1748 1.31979 18.424 1.50195 18.6062C1.68411 18.7883 1.93327 18.88 2.20429 18.88C2.47531 18.88 2.72447 18.7883 2.90663 18.6062C3.08879 18.424 3.18044 18.1748 3.18044 17.9038C3.18044 13.9992 4.86959 10.1813 7.46326 7.33827C10.058 4.49404 13.5322 2.65231 17.0796 2.65231C20.6271 2.65231 24.1013 4.49404 26.696 7.33827C29.2897 10.1813 30.9789 13.9992 30.9789 17.9038Z" fill="black" stroke="black" stroke-width="0.6"/>
</svg>
