<svg width="131" height="32" viewBox="0 0 131 32" fill="none" xmlns="http://www.w3.org/2000/svg">
    <mask id="mask0_5588_2069" style="mask-type:alpha" maskUnits="userSpaceOnUse" x="0" y="0" width="24" height="16">
        <path fill-rule="evenodd" clip-rule="evenodd" d="M0 0H23.1595V15.3821H0V0Z" fill="white"/>
    </mask>
    <g mask="url(#mask0_5588_2069)">
        <path fill-rule="evenodd" clip-rule="evenodd" d="M0.69572 7.43427L13.1971 0.187218C13.6277 -0.062406 14.1582 -0.062406 14.5888 0.187218L22.4633 4.75208C23.2547 5.21086 23.3987 6.298 22.7541 6.94849L20.0847 9.64233C19.6396 10.0915 18.9491 10.1837 18.4026 9.86687L14.6034 7.66449C14.1638 7.40962 13.6221 7.40962 13.1824 7.66449L0 15.3821V8.64419C0 8.14506 0.2652 7.68381 0.69572 7.43427Z" fill="#FF8D00"/>
    </g>
    <mask id="mask1_5588_2069" style="mask-type:alpha" maskUnits="userSpaceOnUse" x="0" y="13" width="24" height="19">
        <path fill-rule="evenodd" clip-rule="evenodd" d="M1.52588e-05 13.0993H23.1883V31.604H1.52588e-05V13.0993Z" fill="white"/>
    </mask>
    <g mask="url(#mask1_5588_2069)">
        <path fill-rule="evenodd" clip-rule="evenodd" d="M22.4921 26.8352L14.5886 31.4168C14.1581 31.6664 13.6277 31.6664 13.1972 31.4169L0.695695 24.1697C0.265176 23.9202 1.52588e-05 23.4589 1.52588e-05 22.9598V16.8484L6.44193 13.0993V19.2254C6.44193 19.7246 6.70713 20.1858 7.13765 20.4354L13.1972 23.9481C13.6277 24.1976 14.1581 24.1976 14.5886 23.9481L18.4228 21.7254C18.9682 21.4092 19.6571 21.5003 20.1024 21.9474L22.7804 24.6363C23.4276 25.2862 23.2848 26.3756 22.4921 26.8352Z" fill="black"/>
    </g>
    <path fill-rule="evenodd" clip-rule="evenodd" d="M73.0073 3.37335V22.3565C73.0073 23.657 72.4647 23.8054 71.2479 23.8054H61.6652C61.2513 23.8054 60.9195 23.6824 60.6506 23.4292C60.5056 23.2928 60.2624 23.318 60.2624 22.1286V3.37172H55.4146V22.6413C55.4146 24.2598 55.9697 25.6201 57.0632 26.6824C58.1115 27.7117 59.6053 28.2336 61.5029 28.2336H71.7344C73.4774 28.2336 74.9413 27.6922 76.0859 26.6245C77.2601 25.5273 77.8554 24.3228 77.8554 22.1937V3.37048L73.0073 3.37335Z" fill="black"/>
    <path fill-rule="evenodd" clip-rule="evenodd" d="M102.353 15.2097C101.4 14.182 100.131 13.661 98.5808 13.661H89.7903C89.2468 13.661 88.8891 13.5479 88.4968 13.1722C88.1165 12.8171 88.0678 12.4311 88.0678 11.961V9.41168C88.0678 8.92277 88.1464 8.52214 88.4674 8.19111C88.6489 8.0089 88.9309 7.79167 89.9687 7.79167H103.608V3.36359H88.222C86.4129 3.36359 84.9522 4.1288 83.8815 5.63632C83.4363 6.25736 83.2199 7.31115 83.2199 8.85822V13.4736C83.2199 14.9164 83.588 16.0177 84.3118 16.7444C85.1886 17.6368 86.3623 18.0891 87.8005 18.0891H97.0405C97.6293 18.0891 98.0581 18.1988 98.3218 18.4208C98.7199 18.7422 98.9134 19.0891 98.9134 19.4812V21.9888C98.9134 23.2098 98.6773 23.1899 98.5396 23.3238C98.1947 23.6525 97.7415 23.8123 97.154 23.8123H83.1992V28.2404H98.0943C99.8242 28.2404 101.244 27.6775 102.316 26.5668C103.275 25.5685 103.761 24.1735 103.761 22.4202V19.5137C103.761 17.6664 103.288 16.2184 102.353 15.2097Z" fill="black"/>
    <mask id="mask2_5588_2069" style="mask-type:alpha" maskUnits="userSpaceOnUse" x="109" y="3" width="22" height="26">
        <path fill-rule="evenodd" clip-rule="evenodd" d="M109.55 3.37158H130.678V28.2324H109.55V3.37158Z" fill="white"/>
    </mask>
    <g mask="url(#mask2_5588_2069)">
        <path fill-rule="evenodd" clip-rule="evenodd" d="M109.55 3.37158V7.79967H117.641V28.2324H122.489V7.79967H130.678V3.37158H109.55Z" fill="black"/>
    </g>
    <path fill-rule="evenodd" clip-rule="evenodd" d="M50.4139 13.6798C50.5348 12.2332 50.4139 8.82456 50.4139 8.82456C50.4139 6.60502 49.428 4.9639 47.4865 3.94839C46.7267 3.54326 45.576 3.34627 43.9687 3.34627L34.8436 3.36288C33.3973 3.36288 29.1117 3.34607 29.1117 3.34607L31.3024 7.77594H36.2183C36.2623 7.77523 36.3061 7.77435 36.3515 7.77435H43.2877C44.3484 7.77435 45.5659 7.96598 45.5659 9.45959V13.0774C45.5659 14.2428 44.9833 14.7626 43.6768 14.7626H37.2726V14.7645H29.1117V28.2557H33.9597V19.1907H41.3311L44.6887 28.2579H50.4626C50.4626 28.2579 47.0557 19.0939 46.9525 18.8736C46.8155 18.5812 48.3854 18.3479 49.3499 17.2965C50.3144 16.2452 50.293 15.1263 50.4139 13.6798Z" fill="black"/>
</svg>
