<svg width="46" height="53" viewBox="0 0 46 53" fill="none" xmlns="http://www.w3.org/2000/svg">
    <path d="M0.000846863 39.4576L22.7805 52.6102L45.5602 39.4576V13.1525L22.7805 0L0.000846863 13.1525V39.4576Z" fill="#469EA2"/>
    <path d="M20.4475 3.14575L3.90513 12.6915C3.93224 12.9892 3.93224 13.2887 3.90513 13.5864L20.4204 23.1322C21.8144 22.1015 23.7179 22.1015 25.1119 23.1322L41.6271 13.5864C41.6 13.2887 41.6 12.9892 41.6271 12.6915L25.139 3.14575C23.745 4.17641 21.8415 4.17641 20.4475 3.14575ZM43.2271 16.2169L26.6848 25.8712C26.8687 27.5887 25.9277 29.2299 24.3526 29.939L24.3797 48.922C24.6471 49.04 24.9016 49.1854 25.139 49.3559L41.6543 39.8102C41.4704 38.0926 42.4113 36.4514 43.9865 35.7424V16.6508C43.7221 16.5269 43.4682 16.3818 43.2271 16.2169ZM2.33225 16.3254C2.09484 16.4959 1.84037 16.6413 1.57293 16.7593V35.8508C3.16973 36.5358 4.12075 38.1945 3.90513 39.9186L20.4204 49.4644C20.6578 49.2939 20.9123 49.1485 21.1797 49.0305V29.939C19.5829 29.254 18.6319 27.5953 18.8475 25.8712L2.33225 16.3254Z" fill="#6ACAD1"/>
    <path d="M22.7797 2.84748L43.1458 14.617V38.1288L22.7797 49.8983L2.41356 38.1288V14.5898L22.7797 2.84748ZM22.7797 0.0542603L0 13.2068V39.5119L22.7797 52.6644L45.5593 39.5119V13.2068L22.7797 0.0542603Z" fill="#469EA2"/>
    <path d="M22.9424 30.7797H22.6169C21.4869 30.7826 20.4022 30.3349 19.6032 29.5358C18.8041 28.7368 18.3564 27.6521 18.3593 26.5221V26.1966C18.3564 25.0666 18.8041 23.9819 19.6032 23.1828C20.4022 22.3838 21.4869 21.9361 22.6169 21.939H22.9424C24.0724 21.9361 25.1571 22.3838 25.9562 23.1828C26.7552 23.9819 27.2029 25.0666 27.2 26.1966V26.5221C27.2029 27.6521 26.7552 28.7368 25.9562 29.5358C25.1571 30.3349 24.0724 30.7826 22.9424 30.7797ZM22.9424 48.2712H22.6169C21.0766 48.2666 19.6546 49.0969 18.9017 50.4407L22.7797 52.6644L26.6576 50.4407C25.9047 49.0969 24.4827 48.2666 22.9424 48.2712ZM45.5864 35.1186H45.4237C44.2936 35.1158 43.209 35.5634 42.4099 36.3625C41.6108 37.1616 41.1632 38.2462 41.1661 39.3763V39.7017C41.1622 40.4245 41.3493 41.1355 41.7085 41.7627L45.5864 39.5119V35.1186ZM41.7085 10.9831C41.3525 11.6116 41.1656 12.3217 41.1661 13.0441V13.3695C41.1632 14.4996 41.6108 15.5842 42.4099 16.3833C43.209 17.1824 44.2936 17.63 45.4237 17.6272H45.5864V13.2068L41.7085 10.9831ZM22.7797 0.0542603L18.9017 2.27799C19.651 3.6289 21.0721 4.46913 22.6169 4.47462H22.9424C24.4827 4.47924 25.9047 3.6489 26.6576 2.30511L22.7797 0.0542603ZM3.87797 10.956L0 13.2068V17.6272H0.162712C1.29279 17.63 2.37741 17.1824 3.1765 16.3833C3.97559 15.5842 4.42323 14.4996 4.42035 13.3695V13.0441C4.41115 12.3144 4.22503 11.5979 3.87797 10.956ZM0.162712 35.1186H0V39.5119L3.87797 41.7627C4.23396 41.1342 4.42083 40.4241 4.42035 39.7017V39.3763C4.42323 38.2462 3.97559 37.1616 3.1765 36.3625C2.37741 35.5634 1.29279 35.1158 0.162712 35.1186Z" fill="#469EA2"/>
    <path d="M22.7797 52.8001V26.4678L0 13.3153V39.6475L22.7797 52.8001Z" fill="#083B54" fill-opacity="0.15"/>
    <path d="M45.5864 39.4034V13.0983L22.8068 26.2509V52.5831L45.5864 39.4034Z" fill="#083B54" fill-opacity="0.05"/>
    <path d="M3.6 19.539H6.01356V33.7763H3.6V19.539ZM8.42711 19.539H13.3491C14.4203 19.539 15.3152 19.661 16.0068 19.8915C16.6983 20.122 17.2542 20.4475 17.6475 20.8542C18.0407 21.2339 18.3254 21.7085 18.4881 22.2373C18.6508 22.7661 18.7322 23.322 18.7322 23.878C18.7322 24.4746 18.6508 25.0576 18.4881 25.6271C18.3254 26.1695 18.0407 26.6712 17.6475 27.0915C17.1864 27.539 16.6169 27.878 16.0068 28.0814C15.3152 28.3254 14.4475 28.4475 13.3898 28.4475H10.8V33.7763H8.42711V19.539ZM13.3356 26.4542C13.8373 26.4678 14.3525 26.4136 14.8407 26.278C15.1797 26.1831 15.5051 26.0204 15.7627 25.7763C15.9797 25.5593 16.1559 25.2881 16.2373 24.9898C16.3322 24.6509 16.3729 24.3119 16.3729 23.9593C16.3864 23.6068 16.3322 23.2542 16.2373 22.9153C16.1424 22.6305 15.9797 22.3729 15.7491 22.1695C15.478 21.9526 15.1525 21.7898 14.8136 21.7085C14.3254 21.5865 13.8373 21.5322 13.3356 21.5458H10.8271V26.4542H13.3356ZM29.5932 19.539V21.6136H22.922V25.6407H29.2V27.7288H22.922V33.7763H20.5085V19.539H29.5932ZM33.1458 29.4237C33.2542 30.3593 33.5932 31.0373 34.1491 31.4576C34.7051 31.878 35.5593 32.0949 36.6712 32.0949C37.1322 32.1085 37.5932 32.0542 38.0407 31.9187C38.3661 31.8102 38.6644 31.661 38.9356 31.4441C39.1525 31.2542 39.3152 31.0102 39.4101 30.739C39.5051 30.4543 39.5457 30.1695 39.5457 29.8712C39.5457 29.6407 39.5186 29.4237 39.4508 29.2068C39.3695 28.9763 39.261 28.7729 39.0983 28.5966C38.8949 28.3932 38.6644 28.2305 38.4068 28.1085C38.0542 27.9593 37.6746 27.8509 37.2949 27.7831L35.478 27.4441C34.8271 27.3356 34.1898 27.1593 33.5661 26.9424C33.0508 26.7661 32.5763 26.4949 32.1559 26.1559C31.7763 25.8305 31.478 25.4237 31.3017 24.9627C31.0983 24.4068 31.0034 23.8237 31.0169 23.2407C30.9763 22.0339 31.5457 20.8814 32.5491 20.2034C33.0644 19.8373 33.6474 19.5797 34.2576 19.4441C34.9627 19.2814 35.6813 19.2 36.4 19.2C37.3763 19.2 38.2034 19.3085 38.8678 19.539C39.4644 19.7288 40.0068 20.0271 40.4813 20.4204C40.8746 20.7729 41.2 21.2068 41.4169 21.6814C41.6339 22.1559 41.7695 22.6576 41.8508 23.1729L39.5729 23.5254C39.383 22.7254 39.0712 22.1424 38.6101 21.7492C38.1491 21.3559 37.4305 21.1661 36.4271 21.1661C35.9525 21.1526 35.4644 21.2068 35.0034 21.3153C34.678 21.3966 34.3525 21.5322 34.0813 21.7356C33.8644 21.8983 33.6881 22.1153 33.5796 22.3593C33.4847 22.5898 33.4305 22.8339 33.4305 23.0915C33.4305 23.7153 33.5932 24.1763 33.9322 24.4881C34.2712 24.8 34.8678 25.0305 35.722 25.2068L37.6881 25.5865C39.1932 25.8712 40.2915 26.3458 40.9966 27.0102C41.7017 27.6746 42.0542 28.6509 42.0542 29.9119C42.0542 30.4814 41.9457 31.0509 41.7288 31.5797C41.5118 32.0949 41.1593 32.5559 40.7254 32.9085C40.2237 33.3153 39.6542 33.6136 39.044 33.8034C38.2847 34.0339 37.4983 34.1424 36.6983 34.1288C34.8813 34.1288 33.4441 33.7492 32.4135 32.9763C31.383 32.2034 30.8 31.0237 30.7051 29.4237H33.1458Z" fill="white"/>
</svg>
