<svg viewBox="0 0 23 21" width="1em" height="1em" fill="currentColor" xmlns="http://www.w3.org/2000/svg">
<path d="M22.2596 11.3617L17.5687 19.8677C17.4054 20.1657 17.1651 20.4143 16.873 20.5877C16.5808 20.7611 16.2475 20.853 15.9078 20.8536H6.59223C6.2525 20.853 5.91917 20.7611 5.62703 20.5877C5.33488 20.4143 5.09464 20.1657 4.93135 19.8677L0.24038 11.3617C0.0826914 11.0753 0 10.7537 0 10.4268C0 10.0999 0.0826914 9.77832 0.24038 9.49197L4.93135 0.985883C5.09464 0.687962 5.33488 0.439323 5.62703 0.26591C5.91917 0.0924968 6.2525 0.000666065 6.59223 0H15.9078C16.2475 0.000666061 16.5808 0.0924968 16.873 0.26591C17.1651 0.439323 17.4054 0.687962 17.5687 0.985883L22.2596 9.49197C22.4173 9.77832 22.5 10.0999 22.5 10.4268C22.5 10.7537 22.4173 11.0753 22.2596 11.3617ZM20.8193 10.5604C20.8418 10.5195 20.8536 10.4736 20.8536 10.427C20.8536 10.3803 20.8418 10.3344 20.8193 10.2935L16.1366 1.78738C16.1134 1.74481 16.0792 1.70925 16.0375 1.68444C15.9959 1.65963 15.9483 1.64647 15.8998 1.64634H6.60019C6.5517 1.64647 6.50414 1.65963 6.46248 1.68444C6.42083 1.70925 6.3866 1.74481 6.36339 1.78738L1.68065 10.2935C1.65817 10.3344 1.64638 10.3803 1.64638 10.427C1.64638 10.4736 1.65817 10.5195 1.68065 10.5604L6.36339 19.0665C6.38664 19.109 6.42088 19.1445 6.46253 19.1693C6.50419 19.1941 6.55173 19.2072 6.60019 19.2073H15.8998C15.9483 19.2072 15.9958 19.1941 16.0375 19.1693C16.0791 19.1445 16.1134 19.109 16.1366 19.0665L20.8193 10.5604ZM11.1792 14.7111C8.75442 14.7111 6.78897 12.7457 6.78897 10.3209C6.78897 7.89612 8.75442 5.93066 11.1792 5.93066C13.6037 5.93066 15.5694 7.89612 15.5694 10.3209C15.5694 12.7457 13.6037 14.7111 11.1792 14.7111ZM11.1792 13.0648C12.6947 13.0648 13.9231 11.8364 13.9231 10.3209C13.9231 8.80545 12.6947 7.577 11.1792 7.577C9.66375 7.577 8.43531 8.80545 8.43531 10.3209C8.43531 11.8364 9.66375 13.0648 11.1792 13.0648Z"/>
</svg>
