<svg width="46" height="31" viewBox="0 0 46 31" fill="none" xmlns="http://www.w3.org/2000/svg">
    <path d="M12.6209 29.5759H10.2511C6.4683 29.3377 1.97425 26.7366 1.80558 21.0025C1.62702 14.9323 5.76442 13.6126 8.40367 12.5569C9.89923 9.03796 14.8962 2 22.9195 2C30.9427 2 35.5878 8.68607 36.9074 12.0291C39.3707 12.5569 44.2445 15.1962 44.0333 21.5303C43.8222 27.8645 37.4353 29.4481 33.2125 29.4481" stroke="#131521" stroke-width="2.6" stroke-linecap="round"/>
    <path d="M12.8848 21.0611L17.1075 15.724M17.1075 15.724L21.3303 21.0611M17.1075 15.724V29.448" stroke="#131521" stroke-width="2.6" stroke-linecap="round" stroke-linejoin="round"/>
    <path d="M32.4152 24.111L28.4563 29.4481M28.4563 29.4481L24.4975 24.111M28.4563 29.4481L28.4563 15.7241" stroke="#131521" stroke-width="2.6" stroke-linecap="round" stroke-linejoin="round"/>
</svg>
