<svg width="179" height="179" viewBox="0 0 179 179" fill="none" xmlns="http://www.w3.org/2000/svg">
    <path fill-rule="evenodd" clip-rule="evenodd" d="M89.9239 48.012L130.707 7.46104L171.491 48.012L130.707 88.563L89.9239 48.012ZM127.516 2.17291C129.279 0.420578 132.136 0.420577 133.898 2.17291L176.809 44.8391C178.571 46.5914 178.571 49.4325 176.809 51.1849L133.898 93.8511C132.136 95.6034 129.279 95.6034 127.516 93.8511L84.6055 51.1849C82.8431 49.4325 82.8431 46.5914 84.6055 44.8391L127.516 2.17291ZM6 80.1696V17.9053H68.6898V80.1696H6ZM0 16.4053C0 13.92 2.01472 11.9053 4.5 11.9053H70.1898C72.6751 11.9053 74.6898 13.92 74.6898 16.4053V81.6696C74.6898 84.1549 72.6751 86.1696 70.1898 86.1696H4.49999C2.01471 86.1696 0 84.1549 0 81.6696V16.4053ZM6 173V110.736H68.6898V173H6ZM0 109.236C0 106.75 2.01472 104.736 4.5 104.736H70.1898C72.6751 104.736 74.6898 106.75 74.6898 109.236V174.5C74.6898 176.985 72.6751 179 70.1898 179H4.49999C2.01471 179 0 176.985 0 174.5V109.236ZM99.3623 110.736V173H162.052V110.736H99.3623ZM97.8623 104.736C95.377 104.736 93.3623 106.75 93.3623 109.236V174.5C93.3623 176.985 95.377 179 97.8623 179H163.552C166.037 179 168.052 176.985 168.052 174.5V109.236C168.052 106.75 166.037 104.736 163.552 104.736H97.8623Z" fill="#131521"/>
</svg>
