<svg width="40" height="40" viewBox="0 0 40 40" fill="none" xmlns="http://www.w3.org/2000/svg">
    <path d="M27.2322 15.5374C27.9056 14.9098 27.9427 13.8552 27.3151 13.1819C26.6876 12.5085 25.6329 12.4714 24.9596 13.099L20.0827 17.6443L15.5373 12.7675C14.9097 12.0941 13.8551 12.057 13.1818 12.6846C12.5084 13.3122 12.4713 14.3668 13.0989 15.0402L17.6442 19.917L12.7674 24.4625C12.094 25.09 12.0569 26.1447 12.6845 26.818C13.3121 27.4913 14.3667 27.5285 15.0401 26.9008L19.9169 22.3555L24.4624 27.2323C25.0899 27.9057 26.1446 27.9428 26.8179 27.3152C27.4912 26.6877 27.5284 25.633 26.9007 24.9597L22.3554 20.0828L27.2322 15.5374Z" fill="black"/>
    <path fill-rule="evenodd" clip-rule="evenodd" d="M1.66675 20C1.66675 9.87477 9.87486 1.66666 20.0001 1.66666C30.1252 1.66666 38.3334 9.87477 38.3334 20C38.3334 30.1252 30.1252 38.3333 20.0001 38.3333C9.87486 38.3333 1.66675 30.1252 1.66675 20ZM20.0001 35C11.7158 35 5.00008 28.2843 5.00008 20C5.00008 11.7157 11.7158 4.99999 20.0001 4.99999C28.2844 4.99999 35.0001 11.7157 35.0001 20C35.0001 28.2843 28.2844 35 20.0001 35Z" fill="black"/>
</svg>
