<svg width="141" height="142" viewBox="0 0 141 142" fill="none" xmlns="http://www.w3.org/2000/svg">
    <rect x="2.8" y="3.4333" width="134.453" height="135.194" rx="18" stroke="black" stroke-width="5.6"/>
    <path d="M30.9204 62.9004C30.9204 65.1128 32.2625 66.9726 34.4568 68.5005C36.651 70.0283 39.7552 71.2687 43.4306 72.246C50.7872 74.202 60.5446 75.133 70.1992 75.133C79.8538 75.133 89.6112 74.202 96.9678 72.246C100.643 71.2687 103.747 70.0283 105.942 68.5005C108.136 66.9726 109.478 65.1128 109.478 62.9004C109.478 60.6879 108.136 58.8281 105.942 57.3002C103.747 55.7724 100.643 54.5321 96.9678 53.5548C89.6112 51.5987 79.8538 50.6677 70.1992 50.6677C60.5446 50.6677 50.7872 51.5987 43.4306 53.5548C39.7552 54.5321 36.651 55.7724 34.4568 57.3002C32.2625 58.8281 30.9204 60.6879 30.9204 62.9004ZM35.1012 62.9004C35.1012 62.6042 35.2387 62.2433 35.5903 61.8233C35.9407 61.4047 36.4814 60.9554 37.2258 60.4933C38.714 59.5697 40.9569 58.6313 43.9377 57.7916C49.8946 56.1136 58.731 54.8485 70.1992 54.8485C81.6674 54.8485 90.5038 56.1136 96.4607 57.7916C99.4416 58.6313 101.684 59.5697 103.173 60.4933C103.917 60.9554 104.458 61.4047 104.808 61.8233C105.16 62.2433 105.297 62.6042 105.297 62.9004C105.297 63.1965 105.16 63.5575 104.808 63.9774C104.458 64.396 103.917 64.8453 103.173 65.3074C101.684 66.2311 99.4416 67.1694 96.4607 68.0091C90.5038 69.6871 81.6674 70.9523 70.1992 70.9523C58.731 70.9523 49.8946 69.6871 43.9377 68.0091C40.9569 67.1694 38.714 66.2311 37.2258 65.3074C36.4814 64.8453 35.9407 64.396 35.5903 63.9774C35.2387 63.5575 35.1012 63.1965 35.1012 62.9004Z" fill="black" stroke="black" stroke-width="0.8"/>
    <path d="M42.8377 112.998H43.0912V113.045L43.1464 113.138C44.9059 116.13 48.3904 118.455 53.0401 120.034C57.6984 121.615 63.5758 122.464 70.1992 122.464C76.9904 122.464 82.8701 121.615 87.4894 119.99C92.0237 118.395 95.3823 116.036 97.1634 112.957C97.2205 112.937 97.2745 112.911 97.3246 112.878C97.4424 112.799 97.516 112.697 97.5609 112.607C97.6049 112.519 97.625 112.436 97.6346 112.378C97.6382 112.356 97.6406 112.337 97.6422 112.32L109.467 63.3323L109.478 63.286V63.2384C109.478 62.6917 109.388 62.1848 109.121 61.7586C108.85 61.3243 108.426 61.0217 107.852 60.8305L107.791 60.81H107.726C107.179 60.81 106.672 60.9002 106.246 61.1666C105.812 61.438 105.509 61.8621 105.318 62.4358L105.313 62.4516L105.309 62.4678L93.4906 111.09C92.5246 112.659 90.262 114.451 86.4573 115.857C82.6231 117.274 77.2626 118.283 70.1992 118.283C63.3022 118.283 58.0253 117.357 54.1911 115.982C50.3897 114.619 48.0387 112.825 46.9067 111.085L35.0899 62.4678L35.086 62.4516L35.0807 62.4358C34.8978 61.8871 34.6084 61.3799 34.1805 61.059C33.7318 60.7224 33.171 60.6222 32.5463 60.8305C31.9976 61.0134 31.4904 61.3028 31.1695 61.7306C30.836 62.1753 30.7346 62.7299 30.9353 63.3477L42.7641 112.691L42.8377 112.998Z" fill="black" stroke="black" stroke-width="0.8"/>
    <path d="M105.297 62.9003C105.297 63.4983 105.498 64.0277 105.879 64.4087C106.26 64.7896 106.79 64.9907 107.388 64.9907C107.986 64.9907 108.515 64.7896 108.896 64.4087C109.277 64.0277 109.478 63.4983 109.478 62.9003C109.478 51.9675 104.697 41.309 97.413 33.386C90.1303 25.4644 80.3101 20.2407 70.1992 20.2407C60.0883 20.2407 50.2681 25.4644 42.9854 33.386C35.7013 41.309 30.9204 51.9675 30.9204 62.9003C30.9204 63.4983 31.1215 64.0277 31.5024 64.4087C31.8834 64.7896 32.4128 64.9907 33.0108 64.9907C33.6088 64.9907 34.1383 64.7896 34.5192 64.4087C34.9001 64.0277 35.1012 63.4983 35.1012 62.9003C35.1012 53.04 39.3649 43.4136 45.8997 36.2505C52.4358 29.0859 61.2095 24.4215 70.1992 24.4215C79.1889 24.4215 87.9626 29.0859 94.4988 36.2505C101.033 43.4136 105.297 53.04 105.297 62.9003Z" fill="black" stroke="black" stroke-width="0.8"/>
</svg>
