<svg width="1em" height="1em" viewBox="0 0 65 61" fill="none" xmlns="http://www.w3.org/2000/svg">
    <path d="M61.6962 0.00405687L36.3408 18.763L41.0549 7.70804L61.6962 0V0.00405687Z" fill="#E17726"/>
    <path d="M3.22046 0.00402832L28.3527 18.9415L23.8618 7.70395L3.22046 0.00808519V0.00402832ZM52.5641 43.5098L45.8175 53.8142L60.264 57.794L64.402 43.737L52.5641 43.5098ZM0.530762 43.7289L4.64036 57.7859L19.0625 53.8102L12.3403 43.5057L0.530762 43.7289V43.7289Z" fill="#E27625"/>
    <path d="M18.2966 26.0939L14.2803 32.1467L28.5767 32.7958L28.102 17.4122L18.2966 26.0939V26.0939ZM46.6256 26.0939L36.666 17.2337L36.3415 32.7918L50.6379 32.1427L46.6216 26.0858L46.6256 26.0939ZM19.0674 53.8104L27.7166 49.6318L20.2682 43.8305L19.0674 53.8104V53.8104ZM37.2015 49.6318L45.8264 53.8104L44.6499 43.8305L37.2015 49.6318Z" fill="#E27625"/>
    <path d="M45.8255 53.8144L37.2006 49.6358L37.9024 55.2383L37.8253 57.6156L45.8255 53.8144V53.8144ZM19.0664 53.8144L27.0909 57.6156L27.0422 55.2383L27.7156 49.6358L19.0664 53.8144V53.8144Z" fill="#D5BFB2"/>
    <path d="M27.2404 40.1265L20.0679 38.021L25.1349 35.6924L27.2445 40.1225L27.2404 40.1265ZM37.6747 40.1265L39.7842 35.6964L44.8715 38.0251L37.6747 40.1265V40.1265Z" fill="#233447"/>
    <path d="M19.0723 53.8184L20.3259 43.514L12.3501 43.7371L19.0723 53.8184ZM44.5981 43.5018L45.8273 53.8062L52.5739 43.729L44.5981 43.5018V43.5018ZM50.6388 32.1467L36.3424 32.7958L37.673 40.1306L39.7785 35.7005L44.8699 38.0251L50.6388 32.1467V32.1467ZM20.0784 38.0251L25.1414 35.7005L27.2509 40.1265L28.5775 32.7998L14.2852 32.1507L20.0784 38.021V38.0251Z" fill="#CC6228"/>
    <path d="M14.2847 32.1467L20.2767 43.8304L20.0738 38.0291L14.2847 32.1467V32.1467ZM44.8734 38.0251L44.6503 43.8304L50.6423 32.1467L44.8734 38.0291V38.0251ZM28.5729 32.7998L27.2423 40.1265L28.9218 48.7839L29.2991 37.376L28.5689 32.7958L28.5729 32.7998ZM36.3459 32.7998L35.644 37.3516L35.997 48.7839L37.6765 40.1265L36.3459 32.7998V32.7998Z" fill="#E27525"/>
    <path d="M37.6747 40.1306L35.9951 48.7839L37.2 49.6359L44.6484 43.8345L44.8715 38.0292L37.6747 40.1306V40.1306ZM20.0679 38.0292L20.2707 43.8305L27.7191 49.6318L28.9199 48.7839L27.2404 40.1306L20.0679 38.0292V38.0292Z" fill="#F5841F"/>
    <path d="M37.8253 57.6156L37.8984 55.2383L37.2493 54.6866H27.667L27.0422 55.2383L27.0909 57.6156L19.0664 53.8103L21.8738 56.1105L27.5655 60.0416H37.3223L43.0425 56.1105L45.8255 53.8103L37.8253 57.6156Z" fill="#C0AC9D"/>
    <path d="M37.2023 49.6357L35.9974 48.7838H28.9223L27.7214 49.6357L27.0439 55.2423L27.6687 54.6905H37.2551L37.9042 55.2423L37.2064 49.6357H37.2023Z" fill="#161616"/>
    <path d="M62.784 19.9922L64.9139 9.63505L61.7049 0.00405687L37.2014 18.1382L46.6255 26.0937L59.9442 29.9721L62.8773 26.544L61.5994 25.6191L63.6278 23.7692L62.0741 22.5683L64.1065 21.0145L62.78 19.9922H62.784ZM0.00405687 9.63505L2.16231 19.9922L0.782974 21.0145L2.8398 22.5683L1.28197 23.7692L3.31446 25.6191L2.03655 26.544L4.96966 29.9721L18.2883 26.0937L27.7205 18.1423L3.21709 0L0 9.63505H0.00405687Z" fill="#763E1A"/>
    <path d="M59.9476 29.9723L46.6248 26.0939L50.6411 32.1467L44.6451 43.8305L52.5681 43.7331H64.4061L59.9435 29.9723H59.9476ZM18.2876 26.0939L4.96897 29.9723L0.530762 43.7331H12.3403L20.2674 43.8305L14.2754 32.1467L18.2876 26.0939V26.0939ZM36.3447 32.7958L37.1967 18.1344L41.0629 7.70416H23.8577L27.7199 18.1344L28.5718 32.7958L28.8963 37.4004L28.9207 48.7799H35.9959L36.0202 37.4004L36.3447 32.7958Z" fill="#F5841F"/>
</svg>
