<?xml version="1.0" encoding="UTF-8"?>
<svg xmlns="http://www.w3.org/2000/svg" xmlns:xlink="http://www.w3.org/1999/xlink" width="28px" height="28px" viewBox="0 0 28 28" version="1.1">
<g id="surface1">
<path style=" stroke:none;fill-rule:nonzero;fill:rgb(0%,0%,0%);fill-opacity:1;" d="M 12.441406 4.199219 C 12.179688 4.507812 12.144531 6.191406 12.378906 7.261719 C 12.730469 8.792969 13.539062 10.261719 14.074219 10.339844 C 14.648438 10.425781 14.820312 10.039062 14.820312 8.679688 C 14.820312 6.101562 13.277344 3.1875 12.441406 4.199219 Z M 12.441406 4.199219 "/>
<path style=" stroke:none;fill-rule:nonzero;fill:rgb(0%,0%,0%);fill-opacity:1;" d="M 18.484375 8.082031 C 16.691406 8.894531 15.917969 10.984375 16.765625 12.691406 C 18.058594 15.269531 22.035156 14.558594 22.679688 11.621094 C 23.128906 9.628906 21.746094 7.847656 19.753906 7.847656 C 19.28125 7.847656 18.796875 7.945312 18.484375 8.082031 Z M 18.484375 8.082031 "/>
<path style=" stroke:none;fill-rule:nonzero;fill:rgb(0%,0%,0%);fill-opacity:1;" d="M 4.769531 9.402344 C 3.6875 9.863281 4.871094 10.949219 7.085938 11.519531 C 8.21875 11.808594 9.679688 11.894531 10.277344 11.683594 C 11.246094 11.359375 10.875 10.539062 9.464844 9.941406 C 7.972656 9.292969 5.628906 9.03125 4.769531 9.402344 Z M 4.769531 9.402344 "/>
<path style=" stroke:none;fill-rule:nonzero;fill:rgb(0%,0%,0%);fill-opacity:1;" d="M 9.15625 14.5 C 7.386719 15.320312 5.28125 17.859375 5.378906 19.03125 C 5.40625 19.40625 5.46875 19.503906 5.703125 19.53125 C 6.289062 19.617188 7.375 18.933594 8.53125 17.761719 C 10.050781 16.230469 10.75 14.871094 10.277344 14.398438 C 10.015625 14.136719 9.902344 14.148438 9.15625 14.5 Z M 9.15625 14.5 "/>
<path style=" stroke:none;fill-rule:nonzero;fill:rgb(0%,0%,0%);fill-opacity:1;" d="M 17 16.054688 C 16.054688 16.292969 15.769531 16.738281 16.117188 17.414062 C 16.515625 18.171875 17.875 18.933594 19.441406 19.257812 C 20.402344 19.457031 21.113281 19.40625 21.699219 19.105469 C 22.621094 18.632812 22.046875 17.511719 20.476562 16.714844 C 19.457031 16.191406 17.738281 15.867188 17 16.054688 Z M 17 16.054688 "/>
<path style=" stroke:none;fill-rule:nonzero;fill:rgb(0%,0%,0%);fill-opacity:1;" d="M 12.195312 17.277344 C 12.070312 17.425781 12.019531 17.859375 12.03125 18.859375 C 12.03125 20.066406 12.082031 20.390625 12.429688 21.386719 C 12.867188 22.679688 13.300781 23.441406 13.777344 23.738281 C 14.074219 23.941406 14.101562 23.941406 14.359375 23.679688 C 14.609375 23.441406 14.636719 23.28125 14.636719 22.132812 C 14.621094 20.714844 14.410156 19.703125 13.824219 18.472656 C 13.253906 17.226562 12.617188 16.765625 12.195312 17.277344 Z M 12.195312 17.277344 "/>
</g>
</svg>
